<mxfile host="app.diagrams.net" modified="2020-08-20T16:49:25.941Z" agent="5.0 (Windows NT 10.0; Win64; x64) AppleWebKit/537.36 (KHTML, like Gecko) Chrome/84.0.4147.125 Safari/537.36" etag="ireMMDApPq7LkH0jidlz" version="13.6.2" type="github">
  <diagram id="QT_86lYSV4tc6srKajOa" name="Page-1">
    <mxGraphModel dx="1422" dy="762" grid="1" gridSize="10" guides="1" tooltips="1" connect="1" arrows="1" fold="1" page="1" pageScale="1" pageWidth="850" pageHeight="1100" math="0" shadow="0">
      <root>
        <mxCell id="0" />
        <mxCell id="1" parent="0" />
        <mxCell id="NS24FDRzRYdFaZoKXp44-6" value="" style="outlineConnect=0;fontColor=#232F3E;gradientColor=#60A337;gradientDirection=north;fillColor=#277116;strokeColor=#ffffff;dashed=0;verticalLabelPosition=bottom;verticalAlign=top;align=center;html=1;fontSize=12;fontStyle=0;aspect=fixed;shape=mxgraph.aws4.resourceIcon;resIcon=mxgraph.aws4.s3;" parent="1" vertex="1">
          <mxGeometry x="315" y="180" width="78" height="78" as="geometry" />
        </mxCell>
        <mxCell id="NS24FDRzRYdFaZoKXp44-26" value="" style="edgeStyle=orthogonalEdgeStyle;rounded=0;orthogonalLoop=1;jettySize=auto;html=1;" parent="1" source="NS24FDRzRYdFaZoKXp44-12" target="NS24FDRzRYdFaZoKXp44-6" edge="1">
          <mxGeometry relative="1" as="geometry" />
        </mxCell>
        <mxCell id="NS24FDRzRYdFaZoKXp44-12" value="" style="outlineConnect=0;fontColor=#232F3E;gradientColor=#945DF2;gradientDirection=north;fillColor=#5A30B5;strokeColor=#ffffff;dashed=0;verticalLabelPosition=bottom;verticalAlign=top;align=center;html=1;fontSize=12;fontStyle=0;aspect=fixed;shape=mxgraph.aws4.resourceIcon;resIcon=mxgraph.aws4.cloudfront;" parent="1" vertex="1">
          <mxGeometry x="171" y="180" width="78" height="78" as="geometry" />
        </mxCell>
        <mxCell id="NS24FDRzRYdFaZoKXp44-44" value="" style="edgeStyle=orthogonalEdgeStyle;orthogonalLoop=1;jettySize=auto;html=1;rounded=1;" parent="1" source="NS24FDRzRYdFaZoKXp44-13" target="NS24FDRzRYdFaZoKXp44-33" edge="1">
          <mxGeometry relative="1" as="geometry">
            <mxPoint x="327" y="474" as="targetPoint" />
          </mxGeometry>
        </mxCell>
        <mxCell id="NS24FDRzRYdFaZoKXp44-13" value="" style="outlineConnect=0;fontColor=#232F3E;gradientColor=#945DF2;gradientDirection=north;fillColor=#5A30B5;strokeColor=#ffffff;dashed=0;verticalLabelPosition=bottom;verticalAlign=top;align=center;html=1;fontSize=12;fontStyle=0;aspect=fixed;shape=mxgraph.aws4.resourceIcon;resIcon=mxgraph.aws4.api_gateway;" parent="1" vertex="1">
          <mxGeometry x="169" y="435" width="78" height="78" as="geometry" />
        </mxCell>
        <mxCell id="NS24FDRzRYdFaZoKXp44-14" value="" style="outlineConnect=0;fontColor=#232F3E;gradientColor=#F54749;gradientDirection=north;fillColor=#C7131F;strokeColor=#ffffff;dashed=0;verticalLabelPosition=bottom;verticalAlign=top;align=center;html=1;fontSize=12;fontStyle=0;aspect=fixed;shape=mxgraph.aws4.resourceIcon;resIcon=mxgraph.aws4.cognito;" parent="1" vertex="1">
          <mxGeometry x="171" y="595" width="78" height="78" as="geometry" />
        </mxCell>
        <mxCell id="NS24FDRzRYdFaZoKXp44-23" value="" style="edgeStyle=orthogonalEdgeStyle;rounded=1;orthogonalLoop=1;jettySize=auto;html=1;" parent="1" target="NS24FDRzRYdFaZoKXp44-13" edge="1">
          <mxGeometry relative="1" as="geometry">
            <mxPoint x="89" y="385" as="sourcePoint" />
            <Array as="points">
              <mxPoint x="119" y="385" />
              <mxPoint x="119" y="474" />
            </Array>
          </mxGeometry>
        </mxCell>
        <mxCell id="NS24FDRzRYdFaZoKXp44-19" value="Mobile client" style="outlineConnect=0;fontColor=#232F3E;gradientColor=none;strokeColor=#232F3E;fillColor=#ffffff;dashed=0;verticalLabelPosition=bottom;verticalAlign=top;align=center;html=1;fontSize=12;fontStyle=0;aspect=fixed;shape=mxgraph.aws4.resourceIcon;resIcon=mxgraph.aws4.mobile_client;" parent="1" vertex="1">
          <mxGeometry x="29" y="280" width="60" height="60" as="geometry" />
        </mxCell>
        <mxCell id="NS24FDRzRYdFaZoKXp44-22" value="" style="outlineConnect=0;fontColor=#232F3E;gradientColor=none;fillColor=#232F3E;strokeColor=none;dashed=0;verticalLabelPosition=bottom;verticalAlign=top;align=center;html=1;fontSize=12;fontStyle=0;aspect=fixed;pointerEvents=1;shape=mxgraph.aws4.client;" parent="1" vertex="1">
          <mxGeometry x="20" y="437" width="78" height="76" as="geometry" />
        </mxCell>
        <mxCell id="NS24FDRzRYdFaZoKXp44-24" value="" style="edgeStyle=orthogonalEdgeStyle;rounded=1;orthogonalLoop=1;jettySize=auto;html=1;" parent="1" target="NS24FDRzRYdFaZoKXp44-12" edge="1">
          <mxGeometry relative="1" as="geometry">
            <mxPoint x="89" y="385" as="sourcePoint" />
            <mxPoint x="169" y="249" as="targetPoint" />
            <Array as="points">
              <mxPoint x="119" y="385" />
              <mxPoint x="119" y="219" />
            </Array>
          </mxGeometry>
        </mxCell>
        <mxCell id="NS24FDRzRYdFaZoKXp44-25" value="" style="edgeStyle=orthogonalEdgeStyle;rounded=1;orthogonalLoop=1;jettySize=auto;html=1;" parent="1" target="NS24FDRzRYdFaZoKXp44-14" edge="1">
          <mxGeometry relative="1" as="geometry">
            <mxPoint x="89" y="385" as="sourcePoint" />
            <mxPoint x="179" y="484" as="targetPoint" />
            <Array as="points">
              <mxPoint x="119" y="385" />
              <mxPoint x="119" y="634" />
            </Array>
          </mxGeometry>
        </mxCell>
        <mxCell id="NS24FDRzRYdFaZoKXp44-31" value="" style="rounded=1;whiteSpace=wrap;html=1;" parent="1" vertex="1">
          <mxGeometry x="469" y="648" width="210" height="80" as="geometry" />
        </mxCell>
        <mxCell id="NS24FDRzRYdFaZoKXp44-32" value="Catalog&lt;br&gt;Service" style="shape=hexagon;perimeter=hexagonPerimeter2;whiteSpace=wrap;html=1;fixedSize=1;" parent="1" vertex="1">
          <mxGeometry x="486.75" y="658" width="74" height="60" as="geometry" />
        </mxCell>
        <mxCell id="NS24FDRzRYdFaZoKXp44-15" value="" style="outlineConnect=0;fontColor=#232F3E;gradientColor=#4D72F3;gradientDirection=north;fillColor=#3334B9;strokeColor=#ffffff;dashed=0;verticalLabelPosition=bottom;verticalAlign=top;align=center;html=1;fontSize=12;fontStyle=0;aspect=fixed;shape=mxgraph.aws4.resourceIcon;resIcon=mxgraph.aws4.dynamodb;" parent="1" vertex="1">
          <mxGeometry x="598" y="663" width="50" height="50" as="geometry" />
        </mxCell>
        <mxCell id="NS24FDRzRYdFaZoKXp44-33" value="" style="rounded=1;whiteSpace=wrap;html=1;" parent="1" vertex="1">
          <mxGeometry x="469" y="300" width="210" height="160" as="geometry" />
        </mxCell>
        <mxCell id="NS24FDRzRYdFaZoKXp44-34" value="Order&lt;br&gt;Service" style="shape=hexagon;perimeter=hexagonPerimeter2;whiteSpace=wrap;html=1;fixedSize=1;" parent="1" vertex="1">
          <mxGeometry x="486.75" y="315" width="74" height="60" as="geometry" />
        </mxCell>
        <mxCell id="NS24FDRzRYdFaZoKXp44-17" value="" style="outlineConnect=0;fontColor=#232F3E;gradientColor=#F34482;gradientDirection=north;fillColor=#BC1356;strokeColor=#ffffff;dashed=0;verticalLabelPosition=bottom;verticalAlign=top;align=center;html=1;fontSize=12;fontStyle=0;aspect=fixed;shape=mxgraph.aws4.resourceIcon;resIcon=mxgraph.aws4.step_functions;" parent="1" vertex="1">
          <mxGeometry x="493.75" y="389" width="60" height="60" as="geometry" />
        </mxCell>
        <mxCell id="NS24FDRzRYdFaZoKXp44-10" value="" style="outlineConnect=0;fontColor=#232F3E;gradientColor=#4D72F3;gradientDirection=north;fillColor=#3334B9;strokeColor=#ffffff;dashed=0;verticalLabelPosition=bottom;verticalAlign=top;align=center;html=1;fontSize=12;fontStyle=0;aspect=fixed;shape=mxgraph.aws4.resourceIcon;resIcon=mxgraph.aws4.aurora;" parent="1" vertex="1">
          <mxGeometry x="598" y="350.5" width="59" height="59" as="geometry" />
        </mxCell>
        <mxCell id="NS24FDRzRYdFaZoKXp44-37" value="" style="rounded=1;whiteSpace=wrap;html=1;" parent="1" vertex="1">
          <mxGeometry x="469" y="520" width="210" height="80" as="geometry" />
        </mxCell>
        <mxCell id="NS24FDRzRYdFaZoKXp44-38" value="Basket&lt;br&gt;Service" style="shape=hexagon;perimeter=hexagonPerimeter2;whiteSpace=wrap;html=1;fixedSize=1;" parent="1" vertex="1">
          <mxGeometry x="486.75" y="529" width="74" height="60" as="geometry" />
        </mxCell>
        <mxCell id="NS24FDRzRYdFaZoKXp44-16" value="" style="outlineConnect=0;fontColor=#232F3E;gradientColor=#4D72F3;gradientDirection=north;fillColor=#3334B9;strokeColor=#ffffff;dashed=0;verticalLabelPosition=bottom;verticalAlign=top;align=center;html=1;fontSize=12;fontStyle=0;aspect=fixed;shape=mxgraph.aws4.resourceIcon;resIcon=mxgraph.aws4.elasticache;" parent="1" vertex="1">
          <mxGeometry x="593" y="529" width="60" height="60" as="geometry" />
        </mxCell>
        <mxCell id="NS24FDRzRYdFaZoKXp44-42" value="" style="outlineConnect=0;fontColor=#232F3E;gradientColor=#F34482;gradientDirection=north;fillColor=#BC1356;strokeColor=#ffffff;dashed=0;verticalLabelPosition=bottom;verticalAlign=top;align=center;html=1;fontSize=12;fontStyle=0;aspect=fixed;shape=mxgraph.aws4.resourceIcon;resIcon=mxgraph.aws4.eventbridge;" parent="1" vertex="1">
          <mxGeometry x="750" y="522" width="74" height="74" as="geometry" />
        </mxCell>
        <mxCell id="NS24FDRzRYdFaZoKXp44-45" value="" style="edgeStyle=orthogonalEdgeStyle;orthogonalLoop=1;jettySize=auto;html=1;rounded=1;entryX=0;entryY=0.5;entryDx=0;entryDy=0;" parent="1" source="NS24FDRzRYdFaZoKXp44-13" target="NS24FDRzRYdFaZoKXp44-37" edge="1">
          <mxGeometry relative="1" as="geometry">
            <mxPoint x="257" y="484" as="sourcePoint" />
            <mxPoint x="479" y="390" as="targetPoint" />
          </mxGeometry>
        </mxCell>
        <mxCell id="NS24FDRzRYdFaZoKXp44-46" value="" style="edgeStyle=orthogonalEdgeStyle;orthogonalLoop=1;jettySize=auto;html=1;rounded=1;entryX=0;entryY=0.5;entryDx=0;entryDy=0;" parent="1" source="NS24FDRzRYdFaZoKXp44-13" target="NS24FDRzRYdFaZoKXp44-31" edge="1">
          <mxGeometry relative="1" as="geometry">
            <mxPoint x="257" y="484" as="sourcePoint" />
            <mxPoint x="479" y="570" as="targetPoint" />
          </mxGeometry>
        </mxCell>
      </root>
    </mxGraphModel>
  </diagram>
</mxfile>
